# xmcd CD database file
#
# Track frame offsets:
#	150
#	15294
#	24353
#	39931
#	52095
#	62800
#	73373
#	83568
#	101288
#	114981
#	126522
#	136195
#	147994
#	167362
#
# Disc length: 2381 seconds
#
# Revision: 1
# Processed by: cddbd v1.5.2PL0 Copyright (c) Steve Scherf et al.
# Submitted via: CDValet v3.40 - Copyright (c) 1996 - 1998 Greg Leichner
#
DISCID=b3094b0e
DTITLE=Buttercup - Evil For You
DYEAR=1900
DGENRE=
TTITLE0=Walk Away
TTITLE1=Half Empty
TTITLE2=River Of Whiskey
TTITLE3=Walkin' The Dog
TTITLE4=It's The Bottle Talkin'
TTITLE5=Queen For A Day
TTITLE6=Passer By
TTITLE7=Springtime In The Badlands
TTITLE8=The Ballad Of Katie Gallows
TTITLE9=Evil For You
TTITLE10=Don Juan
TTITLE11=Cowboy Poets And Honky-Tonk Heartthrobs
TTITLE12=Makin' Believe
TTITLE13=Hellbound Romeo
EXTD=
EXTT0=
EXTT1=
EXTT2=
EXTT3=
EXTT4=
EXTT5=
EXTT6=
EXTT7=
EXTT8=
EXTT9=
EXTT10=
EXTT11=
EXTT12=
EXTT13=
PLAYORDER=
